<?xml version="1.0" encoding="UTF-8" standalone="no"?>
<!-- Created with Inkscape (http://www.inkscape.org/) -->

<svg
   version="1.1"
   id="svg1"
   width="1365.3333"
   height="1365.3333"
   viewBox="0 0 1365.3333 1365.3333"
   xmlns="http://www.w3.org/2000/svg">
  <defs
     id="defs1">
    <clipPath
       clipPathUnits="userSpaceOnUse"
       id="clipPath2">
      <path
         d="M 0,1024 H 1024 V 0 H 0 Z"
         transform="translate(-742.90032,-371.23601)"
         id="path2" />
    </clipPath>
    <clipPath
       clipPathUnits="userSpaceOnUse"
       id="clipPath4">
      <path
         d="M 0,1024 H 1024 V 0 H 0 Z"
         transform="translate(-369.90551,-760.24102)"
         id="path4" />
    </clipPath>
    <clipPath
       clipPathUnits="userSpaceOnUse"
       id="clipPath6">
      <path
         d="M 0,1024 H 1024 V 0 H 0 Z"
         transform="translate(-461.90521,-446.23121)"
         id="path6" />
    </clipPath>
    <clipPath
       clipPathUnits="userSpaceOnUse"
       id="clipPath8">
      <path
         d="M 0,1024 H 1024 V 0 H 0 Z"
         transform="translate(-241.9162,-529.24541)"
         id="path8" />
    </clipPath>
    <clipPath
       clipPathUnits="userSpaceOnUse"
       id="clipPath10">
      <path
         d="M 0,1024 H 1024 V 0 H 0 Z"
         transform="translate(-513.90551,-647.24102)"
         id="path10" />
    </clipPath>
    <clipPath
       clipPathUnits="userSpaceOnUse"
       id="clipPath12">
      <path
         d="M 0,1024 H 1024 V 0 H 0 Z"
         transform="translate(-653.55422,-533.59262)"
         id="path12" />
    </clipPath>
    <clipPath
       clipPathUnits="userSpaceOnUse"
       id="clipPath14">
      <path
         d="M 0,1024 H 1024 V 0 H 0 Z"
         transform="translate(-717.86392,-685.26792)"
         id="path14" />
    </clipPath>
    <clipPath
       clipPathUnits="userSpaceOnUse"
       id="clipPath16">
      <path
         d="M 0,1024 H 1024 V 0 H 0 Z"
         transform="translate(-653.58782,-882.93012)"
         id="path16" />
    </clipPath>
    <clipPath
       clipPathUnits="userSpaceOnUse"
       id="clipPath18">
      <path
         d="M 0,1024 H 1024 V 0 H 0 Z"
         transform="translate(-682.89532,-375.24611)"
         id="path18" />
    </clipPath>
    <clipPath
       clipPathUnits="userSpaceOnUse"
       id="clipPath20">
      <path
         d="M 0,1024 H 1024 V 0 H 0 Z"
         transform="translate(-236.07201,-741.07962)"
         id="path20" />
    </clipPath>
    <clipPath
       clipPathUnits="userSpaceOnUse"
       id="clipPath22">
      <path
         d="M 0,1024 H 1024 V 0 H 0 Z"
         transform="translate(-689.60642,-597.52911)"
         id="path22" />
    </clipPath>
    <clipPath
       clipPathUnits="userSpaceOnUse"
       id="clipPath24">
      <path
         d="M 0,1024 H 1024 V 0 H 0 Z"
         transform="translate(-547.90042,-807.23582)"
         id="path24" />
    </clipPath>
    <clipPath
       clipPathUnits="userSpaceOnUse"
       id="clipPath26">
      <path
         d="M 0,1024 H 1024 V 0 H 0 Z"
         transform="translate(-489.65941,-765.00512)"
         id="path26" />
    </clipPath>
    <clipPath
       clipPathUnits="userSpaceOnUse"
       id="clipPath28">
      <path
         d="M 0,1024 H 1024 V 0 H 0 Z"
         transform="translate(-389.56331,-597.50211)"
         id="path28" />
    </clipPath>
    <clipPath
       clipPathUnits="userSpaceOnUse"
       id="clipPath30">
      <path
         d="M 0,1024 H 1024 V 0 H 0 Z"
         transform="translate(-487.63111,-363.00711)"
         id="path30" />
    </clipPath>
    <clipPath
       clipPathUnits="userSpaceOnUse"
       id="clipPath32">
      <path
         d="M 0,1024 H 1024 V 0 H 0 Z"
         transform="translate(-710.24682,-618.61172)"
         id="path32" />
    </clipPath>
    <clipPath
       clipPathUnits="userSpaceOnUse"
       id="clipPath34">
      <path
         d="M 0,1024 H 1024 V 0 H 0 Z"
         transform="translate(-400.47991,-313.65721)"
         id="path34" />
    </clipPath>
    <clipPath
       clipPathUnits="userSpaceOnUse"
       id="clipPath36">
      <path
         d="M 0,1024 H 1024 V 0 H 0 Z"
         transform="translate(-272.61991,-837.03212)"
         id="path36" />
    </clipPath>
    <clipPath
       clipPathUnits="userSpaceOnUse"
       id="clipPath38">
      <path
         d="M 0,1024 H 1024 V 0 H 0 Z"
         transform="translate(-780.73442,-124.07088)"
         id="path38" />
    </clipPath>
    <clipPath
       clipPathUnits="userSpaceOnUse"
       id="clipPath40">
      <path
         d="M 0,1024 H 1024 V 0 H 0 Z"
         transform="translate(-283.22311,-573.55191)"
         id="path40" />
    </clipPath>
    <clipPath
       clipPathUnits="userSpaceOnUse"
       id="clipPath42">
      <path
         d="M 0,1024 H 1024 V 0 H 0 Z"
         transform="translate(-343.89791,-123.2284)"
         id="path42" />
    </clipPath>
    <clipPath
       clipPathUnits="userSpaceOnUse"
       id="clipPath44">
      <path
         d="M 0,1024 H 1024 V 0 H 0 Z"
         transform="translate(-347.13021,-351.46271)"
         id="path44" />
    </clipPath>
    <clipPath
       clipPathUnits="userSpaceOnUse"
       id="clipPath46">
      <path
         d="M 0,1024 H 1024 V 0 H 0 Z"
         transform="translate(-817.64365,-722.06402)"
         id="path46" />
    </clipPath>
    <clipPath
       clipPathUnits="userSpaceOnUse"
       id="clipPath48">
      <path
         d="M 0,1024 H 1024 V 0 H 0 Z"
         transform="translate(-594.63211,-908.04532)"
         id="path48" />
    </clipPath>
    <clipPath
       clipPathUnits="userSpaceOnUse"
       id="clipPath50">
      <path
         d="M 0,1024 H 1024 V 0 H 0 Z"
         transform="translate(-649.90052,-328.23591)"
         id="path50" />
    </clipPath>
    <clipPath
       clipPathUnits="userSpaceOnUse"
       id="clipPath52">
      <path
         d="M 0,1024 H 1024 V 0 H 0 Z"
         transform="translate(-742.90032,-371.23601)"
         id="path52" />
    </clipPath>
    <clipPath
       clipPathUnits="userSpaceOnUse"
       id="clipPath54">
      <path
         d="M 0,1024 H 1024 V 0 H 0 Z"
         transform="translate(-823.90015,-472.23621)"
         id="path54" />
    </clipPath>
    <clipPath
       clipPathUnits="userSpaceOnUse"
       id="clipPath56">
      <path
         d="M 0,1024 H 1024 V 0 H 0 Z"
         transform="translate(-839.9059,-575.25092)"
         id="path56" />
    </clipPath>
    <clipPath
       clipPathUnits="userSpaceOnUse"
       id="clipPath58">
      <path
         d="M 0,1024 H 1024 V 0 H 0 Z"
         transform="translate(-461.90521,-446.23121)"
         id="path58" />
    </clipPath>
    <clipPath
       clipPathUnits="userSpaceOnUse"
       id="clipPath60">
      <path
         d="M 0,1024 H 1024 V 0 H 0 Z"
         transform="translate(-717.86392,-685.26792)"
         id="path60" />
    </clipPath>
    <clipPath
       clipPathUnits="userSpaceOnUse"
       id="clipPath62">
      <path
         d="M 0,1024 H 1024 V 0 H 0 Z"
         transform="translate(-673.90052,-416.24651)"
         id="path62" />
    </clipPath>
    <clipPath
       clipPathUnits="userSpaceOnUse"
       id="clipPath64">
      <path
         d="M 0,1024 H 1024 V 0 H 0 Z"
         transform="translate(-682.89532,-375.24611)"
         id="path64" />
    </clipPath>
    <clipPath
       clipPathUnits="userSpaceOnUse"
       id="clipPath66">
      <path
         d="M 0,1024 H 1024 V 0 H 0 Z"
         transform="translate(-703.54582,-385.20911)"
         id="path66" />
    </clipPath>
    <clipPath
       clipPathUnits="userSpaceOnUse"
       id="clipPath68">
      <path
         d="M 0,1024 H 1024 V 0 H 0 Z"
         transform="translate(-729.00012,-420.55741)"
         id="path68" />
    </clipPath>
    <clipPath
       clipPathUnits="userSpaceOnUse"
       id="clipPath70">
      <path
         d="M 0,1024 H 1024 V 0 H 0 Z"
         transform="translate(-751.45659,-476.14881)"
         id="path70" />
    </clipPath>
    <clipPath
       clipPathUnits="userSpaceOnUse"
       id="clipPath72">
      <path
         d="M 0,1024 H 1024 V 0 H 0 Z"
         transform="translate(-772.21592,-511.14051)"
         id="path72" />
    </clipPath>
  </defs>
  <g
     id="layer-MC0">
    <path
       id="path1"
       d="m 0,0 c -17.658,-3.009 -35.452,-8.408 -50.908,-17.581 -2.409,-1.43 -13.056,-8.062 -13.112,-9.914 l 2.608,-2.55 c 13.453,8.457 27.39,16.918 42.438,22.529 5.112,1.906 11.278,2.79 16.412,4.589 C -0.924,-2.353 0.372,-2.258 0,0 m 81,101 c -0.588,0.672 -12.172,-5.783 -13.846,-6.68 -1.327,-0.711 -2.71,0.516 -2.143,-2.31 l 15.914,5.072 z m 16.006,103.015 c 2.423,-0.152 16.808,10.142 14.989,11.99 -5.998,-2.469 -10.289,-7.687 -14.989,-11.99 M 93.69,313.696 c 5.127,-5.719 14.851,-40.575 16.85,-49.656 9.02,-40.972 10.334,-82.835 -12.366,-119.704 -5.152,-8.368 -12.553,-11.686 -20.315,-16.685 -3.11,-2.003 -8.708,-7.355 -1.045,-4.955 7.031,2.202 15.587,6.954 22.181,10.309 C 99.418,126.468 98.751,120.361 97.54,113.97 94.319,96.972 84.562,73.11 74.423,59.089 65.921,47.33 57.715,45.017 50.881,29.842 43.263,12.926 35.416,3.204 21.019,-9.509 -6.045,-33.407 -46.396,-52.487 -82.989,-42.984 l 13.965,13.519 c 26.363,38.692 43.281,83.13 68.223,122.776 3.798,6.036 6.487,7.774 11.801,12.199 l -3.98,0.975 c 25.755,46.464 49.709,94.959 69.472,144.534 5.877,14.743 15.04,35.773 15.576,51.469 0.08,2.32 -0.538,7.85 -2.942,3.896 C 69.749,247.886 43.362,192.04 15.993,137.012 c -1.435,-0.296 -1.051,1.13 -1.305,2.159 -6.773,27.418 -6.527,56.707 -15.182,84.834 -0.421,1.367 -0.884,4.78 -2.49,4.995 1.286,-13.69 4.891,-27.061 6.847,-40.637 2.174,-15.096 2.855,-30.532 5.418,-45.582 0.543,-3.186 2.678,-6.646 2.802,-9.292 0.314,-6.673 -9.169,-16.929 -11.093,-23.481 -2.757,-0.41 -1.523,0.326 -1.988,1.483 -7.839,19.511 -18.398,75.56 -15.761,95.778 1.505,11.533 11.639,34.932 18.355,44.645 12.988,18.781 38.566,26.237 56.724,39.276 10.246,7.357 18.778,16.627 28.741,24.307 1.937,1.281 5.28,-0.296 6.629,-1.801"
       style="fill:#5d6244;fill-opacity:1;fill-rule:nonzero;stroke:none"
       transform="matrix(1.3333333,0,0,-1.3333333,990.53373,870.352)"
       clip-path="url(#clipPath2)" />
    <path
       id="path3"
       d="m 0,0 31.823,36.49 c -27.534,30.849 -18.61,69.728 1.366,101.821 1.751,2.811 10.37,15.471 12.243,16.756 1.19,0.818 2.081,1.202 3.555,0.928 2.397,-1.65 -2.628,-32.262 -2.977,-37.505 C 44.748,99.564 46.59,80.837 41.507,61.993 39.323,53.9 33.67,46.374 33.495,38.005 c 7.094,4.83 12.688,11.368 19.032,16.968 2.198,1.94 12.353,8.753 12.978,10.015 1.884,3.805 -3.033,16.98 -3.489,22.528 -2.589,31.457 16.055,60.341 41.052,77.916 1.85,1.301 7.805,5.077 6.887,0.123 -2.107,-11.365 -9.403,-32.043 -13.434,-43.576 -1.92,-5.493 -4.304,-12.077 -6.663,-17.337 C 84.366,92.403 76.242,81.369 71.01,69 l 29.5,25.99 c 9.689,17.513 19.435,32.247 36.175,43.825 20.414,14.12 42.967,19.699 67.31,23.18 0.291,-1.645 -0.786,-2.683 -1.58,-3.91 -13.713,-21.191 -42.494,-46.347 -65.734,-56.266 -8.786,-3.75 -25.718,-6.304 -32.032,-9.968 C 101.277,89.894 87.401,76.994 83.96,73.54 c -2.15,-2.157 -3.391,-5.203 -5.955,-7.045 2.101,-0.712 5.473,1.639 7.349,2.651 24.469,13.199 41.255,15.904 66.857,24.143 14.025,4.513 27.343,11.005 41.301,15.699 1.062,-1.634 -1.494,-5.147 -2.512,-6.488 C 179.238,87 156.245,67.577 137.439,62.061 114.8,55.421 97.306,62.203 75.04,64.543 68.656,57.669 60.017,53.527 52.988,47.512 38.514,35.126 21.765,15.701 9.583,0.917 6.84,-2.412 -2.943,-16.138 -3.985,-19.52 c -0.475,-1.545 -0.025,-1.574 1.315,-1.328 10.595,1.95 20.749,6.071 31.441,7.577 22.927,3.228 40.701,-4.218 62.719,-2.719 19.888,1.355 36.241,12.828 54.995,14.016 0.932,0.058 3.404,0.463 2.026,-1.032 -34.799,-26.651 -73.06,-51.758 -118.757,-35.739 -7.809,2.737 -27.455,15.577 -33.202,14.772 -8.032,-1.125 -20.624,-30.07 -22.551,-38.018 17.996,5.159 37.592,10.533 56.535,9.027 9.683,-0.77 20.56,-4.929 30.26,-6.74 11.662,-2.179 23.473,-3.204 35.222,-4.778 l 0.976,-2.5 c -8.439,-4.525 -16.667,-9.487 -25.746,-12.766 -21.559,-7.784 -48.096,-10.747 -68.931,0.565 -8.167,4.434 -22.448,21.811 -30.517,9.883 -2.363,-3.491 -11.935,-29.411 -9.794,-31.695 13.468,3.041 25.303,7.241 39.478,5.979 15.261,-1.358 33.701,-12.216 46.431,-20.569 1.981,-1.299 13.378,-8.761 13.859,-9.62 0.415,-0.74 0.502,-3.224 0.122,-3.7 -0.391,-0.492 -10.697,-1.959 -12.409,-2.082 -15.739,-1.132 -43.179,1.668 -57.36,8.614 -10.939,5.358 -18.88,15.738 -30.507,18.451 -1.757,-0.369 -4.391,-20.484 -4.61,-23.588 -0.411,-5.825 1.163,-17.117 -0.212,-21.788 -0.612,-2.078 -4.119,-3.683 -5.71,-2.61 -3.938,2.653 1.108,48.863 2.966,56.205 -16.061,12.569 -33.995,25.35 -42.911,44.346 -12.739,27.14 -4.797,55.434 -1.998,83.712 l 1.355,1.625 c 4.568,0.044 10.949,-33.038 12.741,-38.239 8.974,-26.038 21.955,-35.348 25.746,-67.254 0.563,-4.743 -1.514,-20.26 4.66,-21.338 l 18.416,46.336 c -6.847,7.369 -14.861,14.085 -20.892,22.186 -27.23,36.576 -11.854,78.115 -9.161,119.329 4.225,-1.328 5.965,-6.329 7.271,-10.219 4.601,-13.712 3.9,-30.67 7.794,-45.205 5.552,-20.72 16.664,-36.637 16.962,-60.127 0.084,-6.571 -2.132,-14.447 -1.032,-21.444 1.838,-2.102 6.636,9.36 7.197,10.293 C -13.361,-20.997 -5.599,-11.209 0,0 c -3.337,-0.601 -4.482,0.939 -6.514,2.987 -32.05,32.274 -25.13,84.755 -7.66,122.687 0.978,2.125 5.655,13.231 7.668,6.367 3.584,-12.219 0.57,-30.235 1.634,-43.413 C -3.694,74.055 2.374,60.082 3.99,45.489 5.686,30.175 3.665,14.877 0,0"
       style="fill:#2a311f;fill-opacity:1;fill-rule:nonzero;stroke:none"
       transform="matrix(1.3333333,0,0,-1.3333333,493.20733,351.67867)"
       clip-path="url(#clipPath4)" />
    <path
       id="path5"
       d="m 0,0 c -2.393,0.31 -3.438,-2.453 -4.384,-4.106 -5.155,-9.012 -11.425,-24.648 -15.366,-34.634 -3.146,-7.973 -9.012,-22.015 -10.076,-30.059 -0.397,-3.008 2.457,-1.711 1.836,-5.185 1.491,0.505 2.826,3.62 3.469,5.017 5.302,11.525 11.823,30.281 16.285,42.713 C -5.137,-17.621 -3.73,-8.414 0,0 m -24.01,64.01 c -1.942,-0.409 -1.755,-2.007 -1.995,-3.495 -2.362,-14.656 -4.518,-17.962 -9.038,-30.961 -6.676,-19.2 -11.264,-36.928 -20.871,-55.117 -0.41,-0.777 -0.217,-3.007 -2.072,-1.425 -0.168,0.143 -0.64,3.094 -1.279,4.221 -5.696,10.045 -11.686,19.977 -14.664,31.307 8.49,12.895 13.883,27.363 16.92,42.469 -6.322,-5.279 -7.689,-13.987 -11.454,-21.036 -2.648,-4.959 -7.446,-9.45 -8.549,-14.963 l -2.052,0.615 -9.921,20.905 1.97,0.471 c 2.328,16.709 10.431,32.144 14.15,48.374 1.003,4.373 4.527,16.719 -2.13,15.64 0.039,-3.058 0.183,-6.029 -0.444,-9.066 -2.534,-12.271 -10.509,-26.61 -13.096,-39.904 -0.813,-4.177 -1.47,-7.832 -0.96,-12.03 -11.589,16.572 -18.188,36.988 -28.702,54.297 -1.046,1.722 -11.567,17.001 -13.797,14.693 l 30.985,-66.995 -43.528,13.98 c -2.567,0.796 -1.592,-5.139 -1.005,-6.023 16.544,-4.786 32.171,-12.65 49.309,-15.194 L -85,12.02 c -2.68,-1.953 -34.631,6.944 -39.997,8.493 -5.673,1.638 -11.034,4.909 -17.006,4.501 l -0.039,-4.34 c 20.126,-6.426 40.145,-13.383 61.028,-17.178 l 15.01,-31.481 c -21.012,2.05 -40.524,10.31 -60.707,15.772 l -2.827,-1.782 c -1.246,-2.15 0.266,-4.031 2.298,-4.737 22.185,-4.93 43.058,-15.606 66.088,-16.416 l 16.141,-30.354 c -22.47,-0.685 -45.168,5.689 -66.522,12.275 l -2.432,-5.715 c 23.542,-7.354 48.144,-13.837 72.956,-12.491 10.151,-15.56 18.076,-30.462 33.288,-41.779 4.459,-3.317 24.403,-14.184 25.782,-16.217 0.823,-1.215 1.189,-2.042 0.934,-3.556 -3.374,-3.359 -21.688,14.275 -25.951,15.539 -3.047,0.902 -7.315,0.515 -10.586,0.497 -77.284,-0.417 -122.068,62.841 -129.452,134.464 -3.683,35.723 1.2,70.753 -3.122,105.879 -0.425,3.46 -4.431,15.364 -1.908,17.185 3.603,2.6 31.673,-16.333 37.004,-19.09 11.419,-5.904 23.821,-10.012 35.379,-15.62 41.56,-20.166 78.165,-50.377 88.346,-97.654 8.572,-39.808 3.335,-76.303 -15.204,-112.186 -7.289,6.31 -12.507,13.195 -17.923,21.059 -6.531,9.483 -14.073,21.252 -19.75,31.25 -1.582,2.788 -9.687,17.419 -9.481,19.196 10.683,16.2 15.91,35.275 22.179,53.45 1.853,5.372 5.684,11.496 7.036,16.964 2.027,8.197 1.789,17.759 0.428,26.062"
       style="fill:#5b654b;fill-opacity:1;fill-rule:nonzero;stroke:none"
       transform="matrix(1.3333333,0,0,-1.3333333,615.8736,770.3584)"
       clip-path="url(#clipPath6)" />
    <path
       id="path7"
       d="m 0,0 c 7.851,1.377 3.929,16.796 13.487,9.988 15.691,-11.176 21.199,-35.247 19.486,-53.476 -0.657,-6.99 -5.612,-17.122 -2.976,-23.78 0.484,-1.222 2.183,-1.421 3.357,-1.568 l 5.269,4.583 c 13.942,-4.932 19.346,-21.831 24.069,-34.549 l 17.292,-89.197 c -1.732,-0.451 -1.998,0.717 -3.001,1.488 -19.111,14.693 -45.238,45.72 -59.39,65.61 -36.17,50.837 -50.347,115.94 -81.082,170.918 -0.599,1.071 -7.624,13.209 -8.512,11.978 -0.551,-4.254 1.108,-8.093 2.507,-11.983 6.444,-17.929 17.997,-37.312 25.656,-55.343 15.721,-37.011 26.622,-76.198 49.011,-109.99 15.583,-23.52 46.723,-60.203 69.907,-76.092 6.979,-4.783 38.225,-18.156 40.393,-22.607 0.63,-1.292 0.619,-2.6 0.511,-3.98 -11.121,0.691 -20.791,6.226 -31.215,9.275 -10.403,3.043 -19.164,3.919 -29.747,8.254 -53.784,22.027 -83.562,63.618 -109.554,113.445 -9.243,17.72 -15.723,36.211 -20.505,55.626 l 0.261,1.174 c 2.509,2.273 7.766,4.33 6.365,8.275 -1.02,2.965 -4.946,2.397 -7.561,4.488 -5.199,4.158 -7.577,22.332 -8.724,29.273 -3.77,22.829 -4.898,51.59 -3.357,74.727 0.195,2.923 0.365,12.428 4.379,11.315 2.595,-0.72 12.629,-14.643 16.138,-17.882 C -44.922,59.099 -0.477,57.615 0.024,20.446 0.108,14.223 -2.795,6.645 0,0"
       style="fill:#634831;fill-opacity:1;fill-rule:nonzero;stroke:none"
       transform="matrix(1.3333333,0,0,-1.3333333,322.55493,659.6728)"
       clip-path="url(#clipPath8)" />
    <path
       id="path9"
       d="m 0,0 c 2.981,3.094 2.483,7.666 4.79,11.71 1.134,1.989 3.014,3.171 4.048,4.952 9.67,16.662 19.832,32.893 32.752,47.304 0.994,3.259 -5.037,16.878 -5.582,22.543 -0.851,8.848 0.566,20.232 7.497,26.486 12.488,11.268 32.508,8.536 37.795,-8.196 C 86.798,87.398 75.379,71.512 59.68,64.82 48.246,59.945 45.736,59.638 37.022,49.478 31.138,42.618 23.368,30.646 18.561,22.939 10.029,9.258 3.772,-5.403 -3,-19.99 c 1.781,-0.383 2.434,0.953 3.537,1.964 10.537,9.67 17.931,16.254 31.106,22.883 2.516,1.265 12.1,4.192 13.094,5.407 2.024,2.474 0.475,12.51 3.829,18.67 7.618,13.997 26.912,19.899 40.37,10.502 C 111.37,23.771 92.39,-5.979 65.494,-3.007 58.897,-2.278 51.468,3.774 45.761,2.808 33.62,0.752 4.637,-20.333 -3.513,-29.987 c -9.525,-11.284 -15.083,-37.871 -17.232,-52.767 -0.35,-2.421 -0.335,-4.818 -0.245,-7.246 6.063,4.908 9.416,11.988 15.512,16.978 3.532,2.892 17.367,9.8 18.555,11.445 1.945,2.689 0.491,9.853 1.161,13.839 3.587,21.315 34.425,29.679 48.271,12.747 15.426,-18.866 -4.221,-40.881 -26.004,-38.997 -9.213,0.797 -15.888,8.008 -24.031,4.006 C -4.295,-78.222 -25,-99.825 -25,-119.5 v -18 c 0,-0.405 -2.571,-1.753 0.483,-1.489 4.824,6.253 21.945,10.477 26.077,14.929 1.992,2.146 1.858,6.973 2.967,10.033 4.889,13.488 19.677,20.768 33.507,17.554 33.808,-7.856 19.578,-53.712 -19.294,-41.287 -5.482,1.753 -10.691,6.317 -16.137,5.689 -4.804,-0.554 -26.176,-12.578 -27.416,-16.616 0.213,-17.666 1.237,-36.233 3.948,-53.678 3.291,-21.182 10.153,-41.961 12.869,-63.132 l -1.985,-0.481 c -3.797,5.239 -5.584,10.843 -7.516,16.981 -8.018,25.484 -13.121,58.768 -14.544,85.456 -1.631,30.588 1.364,36.227 -13.439,64.561 -1.172,2.245 -7.711,13.746 -8.807,14.679 -2.65,2.257 -13.111,-0.962 -18.091,-0.575 -17.283,1.343 -32.518,18.405 -25.02,35.774 10.73,24.853 46.81,10.723 47.464,-15.392 0.084,-3.36 -1.024,-5.968 -1.127,-8.986 -0.276,-8.076 7.406,-14.623 11.232,-21.849 3.353,-6.332 4.646,-13.509 8.819,-18.671 0.761,12.774 2.39,25.566 4.287,38.223 0.715,4.771 3.674,11.599 2.487,16.03 -0.445,1.66 -2.705,4.064 -3.538,6.474 -2.23,6.459 -5.325,23.176 -9.663,27.337 -3.169,3.04 -14.903,4.676 -20.277,7.721 -18.758,10.628 -17.449,43.056 6.207,45.22 17.314,1.584 26.768,-13.688 25.541,-29.543 -0.44,-5.684 -5.185,-15.028 -4.831,-18.72 0.247,-2.565 6.929,-22.499 8.3,-25.739 0.36,-0.851 1.736,-3.585 2.485,-3.001 2.522,12.266 11.136,26.679 12.753,38.757 C -5.48,2.047 -5.93,16.708 -7.519,29.981 -20.163,40.808 -35.178,59.493 -22.522,76.022 -6.901,96.426 20.91,81.162 16.76,54.74 15.061,43.922 7.268,36.694 0,29.5 Z"
       style="fill:#3a4027;fill-opacity:1;fill-rule:nonzero;stroke:none"
       transform="matrix(1.3333333,0,0,-1.3333333,685.20733,502.34533)"
       clip-path="url(#clipPath10)" />
    <path
       id="path11"
       d="m 0,0 c -4.799,-4.892 -16.462,-11.338 -23.236,-12.264 -5.61,-0.767 -10.878,1.818 -15.267,-2.733 -7.089,-7.349 -16.911,-28.72 -22.472,-38.559 -0.848,-1.5 -2.274,-1.806 -2.964,-3.053 -6.353,-11.468 -6.18,-26.277 -6.668,-39.284 -0.089,-2.358 -2.387,-7.524 -0.055,-8.451 0.304,4.4 10.182,10.107 10.869,12.721 0.405,1.54 -1.051,9.476 -0.89,12.814 0.818,17.015 14.758,36.69 32.544,38.448 49.769,4.92 35.299,-66.719 -11.998,-61.979 -5.14,0.515 -12.185,5.55 -14.788,4.842 -0.791,-0.215 -9.97,-10.389 -11.137,-11.94 -8.56,-11.384 -15.405,-31.689 -21.876,-45.124 -4.516,-9.375 -16.019,-26.55 -17.722,-36.284 -0.101,-0.577 -0.259,-1.646 0.506,-1.501 7.277,7.918 16.113,14.567 26.354,18.142 -3.365,20.395 10.552,42.95 31.907,45.597 32.764,4.062 43.237,-34.902 17.977,-51.978 -13.281,-8.978 -26.065,-9.05 -40.733,-3.265 -2.88,1.136 -4.62,4.233 -8.236,3.317 -2.574,-0.652 -19.181,-12.367 -22.267,-14.814 -6.269,-4.97 -20.329,-21.256 -25.769,-23.231 -1.589,-0.577 -2.996,-1.024 -4.723,-0.767 -1.438,1.259 8.465,10.733 9.428,12.061 11.32,15.612 16.182,34.868 13.107,53.973 -18.012,5.388 -33.344,26.739 -33.566,45.507 -0.139,11.8 12.167,27.343 24.507,27.46 26.194,0.249 33.442,-35.447 25.545,-55.532 -1.483,-3.77 -7.425,-11.256 -7.821,-14.19 -0.222,-1.648 0.903,-8.49 2.782,-9.277 l 19.779,47.728 c 2.62,7.641 -3.098,18.235 -2.644,24.817 0.128,1.858 6.657,21.498 7.86,24.966 6.717,19.367 19.777,35.433 27.792,54.158 0.184,2.266 -5.523,8.964 -6.934,11.664 -6.617,12.664 -9.436,34.92 1.618,45.702 C -20.945,77.242 33.787,34.443 0,0"
       style="fill:#856c53;fill-opacity:1;fill-rule:nonzero;stroke:none"
       transform="matrix(1.3333333,0,0,-1.3333333,871.4056,653.87653)"
       clip-path="url(#clipPath12)" />
    <path
       id="path13"
       d="m 0,0 c 3.168,6.287 -4.163,9.742 -6.802,14.63 -5.221,9.672 -3.994,17.37 -2.816,27.52 0.101,0.872 1.072,3.923 -0.841,3.803 -1.125,-0.07 -5.796,-10.866 -6.253,-12.727 C -19.879,20.328 -14.541,2.425 0,0 M -15.582,-10.625 C -35.581,5.8 -35.468,34.721 -25.13,56.644 -17.483,72.86 9.521,100.92 23.515,113 c 17.312,14.945 21.85,4.973 32.754,-10.299 22.467,-31.466 46.304,-86.286 8.102,-115.557 -22.518,-17.253 -58.249,-15.595 -79.953,2.231"
       style="fill:#616645;fill-opacity:1;fill-rule:nonzero;stroke:none"
       transform="matrix(1.3333333,0,0,-1.3333333,957.15187,451.6428)"
       clip-path="url(#clipPath14)" />
    <path
       id="path15"
       d="m 0,0 c 3.948,-4.736 3.988,-11.291 0.326,-16.196 -2.332,-3.122 -6.829,-4.189 -8.088,-5.913 -1.818,-2.489 -0.276,-18.78 0.087,-23.072 1.594,-18.82 5.458,-37.559 6.003,-56.508 5.839,6.312 5.96,17.075 8.276,25.214 4.326,15.206 10.217,30.513 12.54,46.055 -14.537,12.332 1.899,33.865 17.103,23.16 12.65,-8.907 4.493,-27.327 -9.855,-26.505 L 6.328,-105.689 c 3.348,4.543 7.458,10.584 9.868,15.621 5.163,10.789 9.525,28.019 15.267,37.734 1.197,2.025 3.876,4.296 5.845,5.645 -0.083,-2.474 0.214,-5.006 -0.007,-7.484 -0.855,-9.574 -12.458,-35.39 -17.441,-44.558 -4.027,-7.41 -10.559,-13.232 -13.537,-20.953 1.581,-1.57 12.233,9.337 13.591,10.995 1.067,1.303 0.732,2.662 1.411,3.476 6.227,7.466 12.399,14.827 19.498,21.521 l 0.99,-1.994 c 1.632,3.126 4.146,9.074 7.491,4.998 1.201,1.259 1.147,5.399 1.521,5.949 0.746,1.096 2.675,1.433 3.501,2.548 1.631,2.201 9.238,12.007 9.547,13.42 0.42,1.921 -2.343,4.139 -3.047,6.093 -8.507,23.589 29.604,28.509 27.496,4.496 -0.379,-4.319 -3.424,-8.704 -7.049,-10.962 -3.665,-2.283 -7.103,-0.666 -9.443,-2.557 -3.24,-2.619 -9.221,-14.209 -12.533,-18.468 -16.14,-20.753 -35.96,-39.413 -59.498,-51.501 -2.878,-15.317 -0.841,-31.052 -1.44,-46.56 -0.606,-15.672 -4.49,-54.464 -17.104,-64.891 -2.205,-1.824 -5.695,-2.588 -5.989,0.943 2.234,7.834 6.378,15.444 8.76,23.28 6.068,19.955 5.875,43.811 6.333,64.668 0.098,4.491 0.774,17.496 -0.234,20.849 -0.921,3.065 -14.97,8.146 -18.726,10.273 -16.884,9.56 -33.733,24.91 -46.595,39.405 -2.391,2.694 -11.358,15.824 -12.492,16.508 -3.018,1.821 -8.536,-1.202 -13.415,3.585 -14.047,13.782 5.286,35.572 21.345,21.345 9.769,-8.654 -1.457,-17.475 -0.771,-21.701 0.56,-3.454 13.154,-17.485 16.323,-20.747 6.715,-6.911 17.522,-17.075 25.052,-22.948 6.55,-5.108 13.458,-9.474 21.471,-12.018 l -20.512,18.977 -23.008,30.086 0.533,4.926 c 15.106,-10.697 25.243,-27.265 37.493,-40.994 -0.224,7.969 -7.374,14.993 -11.024,21.976 -8.448,16.16 -16.329,34.627 -17.574,52.929 -15.204,0.704 -20.951,15.474 -8.403,25.086 6.388,4.893 12.524,6.517 19.229,1.346 6.167,-4.757 6.491,-14.513 1.691,-20.266 -5.608,-6.721 -7.222,-1.295 -4.932,-13.087 2.371,-12.21 8.141,-23.853 12.628,-35.368 l 15.869,-27.616 c -0.976,12.974 -16.752,33.141 -12.1,45.611 0.515,1.38 -0.318,1.698 2.098,1.384 2.191,-6.822 6.191,-13.074 8.776,-19.737 2.909,-7.503 4.804,-15.322 6.952,-23.065 0.216,-0.779 0.071,-3.316 1.298,-1.686 -0.905,16.151 -5.382,31.966 -6.997,48.005 -0.458,4.552 -0.399,26.628 -1.521,28.478 -0.718,1.184 -5.266,3.482 -6.947,6.054 C -33.46,-2.37 -11.093,13.308 0,0"
       style="fill:#6b4d33;fill-opacity:1;fill-rule:nonzero;stroke:none"
       transform="matrix(1.3333333,0,0,-1.3333333,871.4504,188.0932)"
       clip-path="url(#clipPath16)" />
    <path
       id="path17"
       d="M 0,0 C -0.342,4.642 0.449,12.566 -2.98,15.995 -2.943,11.608 -2.31,7.07 -1.7,2.767 -1.567,1.826 -1.363,-0.254 0,0 m -8.995,41 -7.985,24.99 c -0.326,-7.7 2.523,-15.914 5.725,-22.805 0.653,-1.407 -0.602,-2.729 2.26,-2.185 M 39.02,69.995 17.031,148.516 8.02,162.995 C 19.214,130.696 28.705,97.953 36.828,64.724 L 19.02,33.995 c -1.779,11.072 -4.543,22.033 -7.746,32.764 -3.702,12.4 -8.785,28.62 -13.498,40.502 -1.069,2.695 -2.526,6.902 -4.756,8.734 C -5.659,96.881 3.123,78.44 8.509,59.994 11.547,49.587 13.833,38.94 16.981,28.561 13.73,21.215 10.17,13.261 6.182,6.323 3.424,1.526 -0.021,-2.197 -2.791,-6.703 -9.753,-18.028 -14.413,-30.991 -26.98,-38.005 l 0.978,17.491 -4.978,45.019 c -3.595,29.94 21.401,46.195 23.029,74.946 0.983,17.353 -4.272,32.289 2.186,49.819 5.045,13.694 17.458,28.723 30.104,35.896 2.616,1.485 10.65,6.708 11.894,2.558 8.151,-28.683 11.432,-58.735 20.579,-87.056 C 52.016,89.9 46.262,79.31 39.02,69.995"
       style="fill:#5d6244;fill-opacity:1;fill-rule:nonzero;stroke:none"
       transform="matrix(1.3333333,0,0,-1.3333333,910.52707,865.0052)"
       clip-path="url(#clipPath18)" />
    <path
       id="path19"
       d="m 0,0 c -0.913,-0.598 -5.183,-17.224 -5.701,-19.805 -2.045,-10.201 -3.751,-21.859 -2.455,-32.032 8.047,8.72 9.793,25.323 18.967,32.522 5.581,4.379 9.802,5.329 10.929,-3.112 1.881,-14.1 -9.684,-12.443 -17.436,-20.382 -1.901,-1.946 -14.022,-18.137 -14.195,-19.643 1.339,-32.786 13.888,-61.815 28.737,-90.379 l 2.079,9.492 c -0.072,7.439 -3.153,15.75 -2.147,23.059 0.452,3.288 2.592,3.638 3.041,5.956 0.569,2.937 -0.39,6.817 0.084,9.929 -4.454,0.486 -3.124,3.726 -4.881,7.249 -1.372,2.752 -4.412,6.363 -4.961,9.035 -4.638,22.553 16.116,42.222 36.248,26.248 11.633,-9.232 11.464,-27.389 1.167,-37.619 -5.504,-5.468 -15.233,-6.36 -22.648,-6.352 -0.216,-13.828 0.291,-27.71 0.047,-41.546 -0.07,-3.942 -1.418,-7.436 -1.077,-12.004 0.548,-7.366 6.869,-14.895 11.218,-20.772 7.281,-9.839 16.033,-18.706 24.296,-27.706 2.015,-6.034 -2.542,-5.497 -6.503,-2.492 -13.445,10.202 -26.321,29.392 -35.391,43.6 -3.796,5.946 -10.423,20.733 -14.538,24.462 -2.595,2.351 -6.859,3.671 -9.957,6.043 -8.213,6.287 -20.088,16.471 -27.057,23.941 -1.595,1.71 -3.005,4.237 -4.243,6.248 -8.944,0.727 -13.801,-1.826 -22.3,2.21 -13.395,6.361 -17.73,25.21 -9.327,37.349 10.344,14.942 26.79,10.781 35.65,-3.025 7.724,-12.038 4.027,-23.648 8.236,-36.759 l -2.046,-1.047 c 7.332,-9.424 14.442,-20.01 25.992,-24.502 -5.28,14.608 -9.557,29.527 -12.723,44.767 -1.508,7.262 -1.75,18.919 -3.712,25.288 -0.74,2.402 -5.679,6.407 -7.581,9.419 -2.192,3.471 -2.894,6.999 -4.793,10.207 -4.973,8.397 -14.488,18.018 -14.265,27.812 0.217,9.565 8.233,12.988 14.087,5.01 2.051,-2.795 3.531,-8.071 4.505,-11.495 2.722,-9.558 4.008,-19.63 7.498,-29.011 l 1.506,0.982 c 0.733,16.872 5.077,33.099 8.484,49.504 -0.243,2.427 -4.837,5.35 -6.437,7.576 -11.927,16.591 1.135,46.877 19.46,53.411 C 30.958,70.588 31,31.511 24.857,16.638 20.621,6.382 10.817,0.901 0,0"
       style="fill:#806549;fill-opacity:1;fill-rule:nonzero;stroke:none"
       transform="matrix(1.3333333,0,0,-1.3333333,314.76267,377.2272)"
       clip-path="url(#clipPath20)" />
    <path
       id="path21"
       d="m 0,0 c -0.622,-0.781 -6.614,-5.105 -7.798,-5.691 -7.734,-3.821 -16.99,-2.351 -22.923,3.883 -13.052,13.713 -1.845,41.176 5.021,56.019 4.468,9.657 12.157,23.684 24.506,14.508 C 6.131,63.277 3.62,57.418 3.253,50.262 2.978,44.898 2.49,39.95 2.265,34.273 1.906,25.214 5.566,6.991 0,0"
       style="fill:#947c5f;fill-opacity:1;fill-rule:nonzero;stroke:none"
       transform="matrix(1.3333333,0,0,-1.3333333,919.4752,568.62787)"
       clip-path="url(#clipPath22)" />
    <path
       id="path23"
       d="m 0,0 c 2.821,-2.707 -12.065,-12.147 -14.079,-13.411 -34.659,-21.74 -73.036,-18.816 -106.911,2.921 8.302,3.481 16.235,7.902 25.153,9.837 20.031,4.346 41.042,-1.084 61.301,-1.383 C -22.958,-2.207 -11.517,-0.862 0,0"
       style="fill:#2e3422;fill-opacity:1;fill-rule:nonzero;stroke:none"
       transform="matrix(1.3333333,0,0,-1.3333333,730.53387,289.01893)"
       clip-path="url(#clipPath24)" />
    <path
       id="path25"
       d="m 0,0 c 1.575,-1.876 1.859,-7.657 -0.52,-8.742 -2.49,-1.136 -11.928,-3.292 -14.966,-3.79 -15.723,-2.576 -33.352,-2.208 -47.939,4.597 L -93.749,9.226 c 7.825,0.258 14.917,3.892 22.617,4.888 C -47.382,17.187 -22.545,6.276 0,0"
       style="fill:#2e3422;fill-opacity:1;fill-rule:nonzero;stroke:none"
       transform="matrix(1.3333333,0,0,-1.3333333,652.8792,345.32653)"
       clip-path="url(#clipPath26)" />
    <path
       id="path27"
       d="m 0,0 c -0.133,-0.298 -1.409,-0.192 -1.588,-0.906 -0.324,-1.292 0.47,-5.191 -1.079,-7.365 l -2.988,1.003 c 1.591,-4.833 -10.177,-8.686 -13.648,-8.924 -9.578,-0.657 -23.415,8.75 -25.114,18.666 -3.624,21.154 23.911,29.576 37.594,15.6 C -3.38,14.556 2.186,4.921 0,0"
       style="fill:#74755a;fill-opacity:1;fill-rule:nonzero;stroke:none"
       transform="matrix(1.3333333,0,0,-1.3333333,519.41773,568.66387)"
       clip-path="url(#clipPath28)" />
    <path
       id="path29"
       d="M 0,0 C 25.147,5.224 28.878,-36.798 -0.754,-29.295 -15.597,-25.537 -14.584,-3.03 0,0"
       style="fill:#595c47;fill-opacity:1;fill-rule:nonzero;stroke:none"
       transform="matrix(1.3333333,0,0,-1.3333333,650.1748,881.32387)"
       clip-path="url(#clipPath30)" />
    <path
       id="path31"
       d="M 0,0 C -18.248,12.785 7.271,38.807 20.093,21.564 30.417,7.68 14.584,-10.217 0,0"
       style="fill:#707558;fill-opacity:1;fill-rule:nonzero;stroke:none"
       transform="matrix(1.3333333,0,0,-1.3333333,946.99573,540.51773)"
       clip-path="url(#clipPath32)" />
    <path
       id="path33"
       d="M 0,0 C -0.558,-0.919 -2.718,-2.552 -3.231,-4.466 -11.781,-6.134 -33.612,1.577 -30.142,12.628 -26.349,24.705 0.69,14.58 2.195,3.906 2.226,2.198 0.751,1.236 0,0"
       style="fill:#746e54;fill-opacity:1;fill-rule:nonzero;stroke:none"
       transform="matrix(1.3333333,0,0,-1.3333333,533.9732,947.12373)"
       clip-path="url(#clipPath34)" />
    <path
       id="path35"
       d="M 0,0 C 18.02,4.168 21.997,-31.305 0.069,-24.502 -13.118,-20.411 -8.314,-1.923 0,0"
       style="fill:#644f30;fill-opacity:1;fill-rule:nonzero;stroke:none"
       transform="matrix(1.3333333,0,0,-1.3333333,363.4932,249.29053)"
       clip-path="url(#clipPath36)" />
    <path
       id="path37"
       d="m 0,0 1.171,-2.82 c -36.47,-1.576 -73.515,-1.713 -110,0 1.529,2.476 7.654,2.833 10.46,3.03 20.341,1.434 42.614,0.818 62.999,1.001 C -23.505,1.318 -11.795,0.971 0,0"
       style="fill:#ffffff;fill-opacity:1;fill-rule:nonzero;stroke:none"
       transform="matrix(1.3333333,0,0,-1.3333333,1040.9792,1199.9055)"
       clip-path="url(#clipPath38)" />
    <path
       id="path39"
       d="M 0,0 C -4.468,5.343 -4.411,23.686 3.015,23.429 17.113,22.941 22.773,-9.321 5.622,-3.866 4.919,-3.642 0.462,-0.552 0,0"
       style="fill:#705b41;fill-opacity:1;fill-rule:nonzero;stroke:none"
       transform="matrix(1.3333333,0,0,-1.3333333,377.6308,600.59747)"
       clip-path="url(#clipPath40)" />
    <path
       id="path41"
       d="m 0,0 -10.451,-2.029 c -36.194,1.253 -72.258,-0.393 -108.547,0.046 l 0.593,3.084 c 1.579,0.606 3.174,0.844 4.867,0.959 21.793,1.479 43.484,-1.614 64.993,-2.091 6.376,-0.141 10.468,1.603 16.069,2.027 C -22.044,2.786 -10.41,1.076 0,0"
       style="fill:#ffffff;fill-opacity:1;fill-rule:nonzero;stroke:none"
       transform="matrix(1.3333333,0,0,-1.3333333,458.53053,1201.0288)"
       clip-path="url(#clipPath42)" />
    <path
       id="path43"
       d="m 0,0 c 1.292,-0.909 6.116,-0.644 8.765,-2.73 7.419,-5.841 -2.298,-17.888 -10.009,-9.011 -1.707,1.967 -2.267,5.514 -4.006,6.994 -1.961,1.669 -6.146,2.186 -8.615,4.884 -6.555,7.163 3.991,14.95 10.099,7.6 C -2.411,6.107 -0.707,0.498 0,0"
       style="fill:#604b2f;fill-opacity:1;fill-rule:nonzero;stroke:none"
       transform="matrix(1.3333333,0,0,-1.3333333,462.84027,896.7164)"
       clip-path="url(#clipPath44)" />
    <path
       id="path45"
       d="M 0,0 C 9.181,1.88 16.302,-12.36 6.771,-18.824 -4.797,-26.669 -10.043,-2.056 0,0"
       style="fill:#554532;fill-opacity:1;fill-rule:nonzero;stroke:none"
       transform="matrix(1.3333333,0,0,-1.3333333,1090.1915,402.58133)"
       clip-path="url(#clipPath46)" />
    <path
       id="path47"
       d="M 0,0 C 9.177,2.75 14.922,-8.9 9.279,-12.351 6.225,-14.218 -9.168,-10.055 -5.241,-3.804 -5.069,-3.529 -0.438,-0.131 0,0"
       style="fill:#846b4d;fill-opacity:1;fill-rule:nonzero;stroke:none"
       transform="matrix(1.3333333,0,0,-1.3333333,792.8428,154.60627)"
       clip-path="url(#clipPath48)" />
    <path
       id="path49"
       d="M 0,0 C 1.768,-1.845 -7.348,-9.429 -9.99,-8.99 -11.571,-7.447 -0.85,0.887 0,0"
       style="fill:#000000;fill-opacity:1;fill-rule:nonzero;stroke:none"
       transform="matrix(1.3333333,0,0,-1.3333333,866.534,927.68547)"
       clip-path="url(#clipPath50)" />
    <path
       id="path51"
       d="m 0,0 c 0.372,-2.258 -0.924,-2.353 -2.562,-2.927 -5.134,-1.799 -11.3,-2.683 -16.412,-4.589 -15.048,-5.611 -28.985,-14.072 -42.438,-22.529 l -2.608,2.55 c 0.056,1.852 10.703,8.484 13.112,9.914 C -35.452,-8.408 -17.658,-3.009 0,0"
       style="fill:#cdc3ac;fill-opacity:1;fill-rule:nonzero;stroke:none"
       transform="matrix(1.3333333,0,0,-1.3333333,990.53373,870.352)"
       clip-path="url(#clipPath52)" />
    <path
       id="path53"
       d="M 0,0 -0.075,-3.918 -15.989,-8.99 c -0.567,2.826 0.816,1.599 2.143,2.31 C -12.172,-5.783 -0.588,0.672 0,0"
       style="fill:#cdc3ac;fill-opacity:1;fill-rule:nonzero;stroke:none"
       transform="matrix(1.3333333,0,0,-1.3333333,1098.5335,735.68507)"
       clip-path="url(#clipPath54)" />
    <path
       id="path55"
       d="M 0,0 C 4.7,4.304 8.991,9.521 14.99,11.99 16.808,10.142 2.423,-0.152 0,0"
       style="fill:#606060;fill-opacity:1;fill-rule:nonzero;stroke:none"
       transform="matrix(1.3333333,0,0,-1.3333333,1119.8745,598.33213)"
       clip-path="url(#clipPath56)" />
    <path
       id="path57"
       d="m 0,0 c -3.73,-8.414 -5.137,-17.621 -8.236,-26.254 -4.462,-12.432 -10.983,-31.188 -16.285,-42.713 -0.643,-1.397 -1.978,-4.512 -3.469,-5.017 0.621,3.474 -2.233,2.177 -1.836,5.185 1.064,8.044 6.93,22.086 10.076,30.059 3.941,9.986 10.211,25.622 15.366,34.634 C -3.438,-2.453 -2.393,0.31 0,0"
       style="fill:#cdc3ac;fill-opacity:1;fill-rule:nonzero;stroke:none"
       transform="matrix(1.3333333,0,0,-1.3333333,615.8736,770.3584)"
       clip-path="url(#clipPath58)" />
    <path
       id="path59"
       d="m 0,0 c -14.541,2.425 -19.879,20.328 -16.712,33.226 0.457,1.861 5.128,12.657 6.253,12.727 1.913,0.12 0.942,-2.931 0.841,-3.803 C -10.796,32 -12.023,24.302 -6.802,14.63 -4.163,9.742 3.168,6.287 0,0"
       style="fill:#ffffff;fill-opacity:1;fill-rule:nonzero;stroke:none"
       transform="matrix(1.3333333,0,0,-1.3333333,957.15187,451.6428)"
       clip-path="url(#clipPath60)" />
    <path
       id="path61"
       d="M 0,0 C -2.862,-0.545 -1.607,0.778 -2.261,2.185 -5.462,9.076 -8.311,17.29 -7.985,24.99 Z"
       style="fill:#ffffff;fill-opacity:1;fill-rule:nonzero;stroke:none"
       transform="matrix(1.3333333,0,0,-1.3333333,898.534,810.338)"
       clip-path="url(#clipPath62)" />
    <path
       id="path63"
       d="M 0,0 C -1.363,-0.254 -1.567,1.826 -1.7,2.767 -2.31,7.07 -2.943,11.608 -2.98,15.995 0.449,12.566 -0.342,4.642 0,0"
       style="fill:#ffffff;fill-opacity:1;fill-rule:nonzero;stroke:none"
       transform="matrix(1.3333333,0,0,-1.3333333,910.52707,865.0052)"
       clip-path="url(#clipPath64)" />
    <path
       id="path65"
       d="M 0,0 C 29.092,17.267 62.585,27.428 95.822,33.092"
       style="fill:#cdc3ac;fill-opacity:1;fill-rule:nonzero;stroke:none"
       transform="matrix(1.3333333,0,0,-1.3333333,938.06107,851.7212)"
       clip-path="url(#clipPath66)" />
    <path
       id="path67"
       d="M 0,0 C 29.092,17.267 62.585,27.428 95.821,33.092"
       style="fill:#cdc3ac;fill-opacity:1;fill-rule:nonzero;stroke:none"
       transform="matrix(1.3333333,0,0,-1.3333333,972.00013,804.59013)"
       clip-path="url(#clipPath68)" />
    <path
       id="path69"
       d="M 0,0 C 29.092,17.267 62.585,27.428 95.822,33.092"
       style="fill:#cdc3ac;fill-opacity:1;fill-rule:nonzero;stroke:none"
       transform="matrix(1.3333333,0,0,-1.3333333,1001.9421,730.46827)"
       clip-path="url(#clipPath70)" />
    <path
       id="path71"
       d="M 0,0 C 31.366,12.674 59.749,33.155 84.398,56.159"
       style="fill:#cdc3ac;fill-opacity:1;fill-rule:nonzero;stroke:none"
       transform="matrix(1.3333333,0,0,-1.3333333,1029.6212,683.81267)"
       clip-path="url(#clipPath72)" />
    <text
       id="text72"
       xml:space="preserve"
       transform="matrix(1.3333333,0,0,1.3333333,330.80533,1149.806)"><tspan
         id="tspan72"
         style="font-variant:normal;font-weight:600;font-stretch:normal;font-size:197px;font-family:AnkoPersonalUse-SemiBold;writing-mode:lr-tb;fill:#ffffff;fill-opacity:1;fill-rule:nonzero;stroke:none"
         x="0"
         dx="0 -8.8649998"
         y="0">LUSH</tspan></text>
    <text
       id="text73"
       xml:space="preserve"
       transform="matrix(1.3333333,0,0,1.3333333,547.3288,1224.6224)"><tspan
         id="tspan73"
         style="font-variant:normal;font-weight:bold;font-stretch:normal;font-size:50px;font-family:MazzardSoftH-Bold;writing-mode:lr-tb;fill:#ffffff;fill-opacity:1;fill-rule:nonzero;stroke:none"
         x="0"
         y="0">N A I L S</tspan></text>
  </g>
</svg>
