<svg xmlns="http://www.w3.org/2000/svg" viewBox="0 0 223.48563 195.95357" width="223.48563" height="195.95357">
  <path fill="#5d6244" d="m 186.58702,176.24901 c -5.58984,0.95312 -11.21875,2.66015 -16.10937,5.5625 -0.76172,0.45312 -4.12891,2.55078 -4.14844,3.13672 l 0.82422,0.80859 c 4.25781,-2.67578 8.66797,-5.35156 13.42969,-7.12891 1.61718,-0.60156 3.5664,-0.88281 5.1914,-1.45312 0.51953,-0.17969 0.92969,-0.21094 0.8125,-0.92578 m 25.62891,-31.95703 c -0.1875,-0.21094 -3.85156,1.83203 -4.38281,2.11328 -0.41797,0.22656 -0.85547,-0.16016 -0.67578,0.73437 l 5.03515,-1.60547 z m 5.0625,-32.59375 c 0.76562,0.0469 5.32031,-3.20703 4.74219,-3.79297 -1.89844,0.78125 -3.25391,2.43359 -4.74219,3.79297 m -1.04688,-34.703126 c 1.6211,1.8086 4.69532,12.83985 5.32813,15.71094 2.85547,12.964836 3.26953,26.210936 -3.91016,37.874996 -1.63281,2.64844 -3.97265,3.69922 -6.42968,5.28125 -0.98438,0.63281 -2.75391,2.32422 -0.32813,1.56641 2.22266,-0.69532 4.92969,-2.19922 7.01563,-3.26172 0.13671,2.0664 -0.0781,4 -0.46094,6.02343 -1.01563,5.37891 -4.10547,12.92579 -7.3125,17.36329 -2.69141,3.72265 -5.28516,4.45312 -7.44922,9.2539 -2.41016,5.35156 -4.89453,8.42969 -9.44922,12.45313 -8.5625,7.55859 -21.32812,13.59765 -32.90625,10.58984 l 4.41797,-4.27734 c 8.33984,-12.24219 13.69141,-26.30078 21.58594,-38.84766 1.19922,-1.91016 2.05078,-2.45703 3.73437,-3.85937 l -1.26172,-0.3086 c 8.14844,-14.69922 15.73047,-30.04687 21.98438,-45.730466 1.85937,-4.66406 4.75781,-11.32031 4.92578,-16.28515 0.0273,-0.73438 -0.16797,-2.48438 -0.92969,-1.23438 -6.13281,18.51172 -14.48047,36.179686 -23.14062,53.589846 -0.45313,0.0937 -0.33203,-0.35547 -0.41407,-0.67969 -2.14062,-8.67578 -2.0625,-17.94531 -4.80078,-26.84375 -0.13281,-0.4336 -0.28125,-1.51172 -0.78906,-1.58203 0.40625,4.33203 1.54688,8.5625 2.16797,12.85937 0.6875,4.77735 0.90234,9.66016 1.71094,14.42188 0.17187,1.00781 0.84765,2.10156 0.88672,2.9414 0.10156,2.10938 -2.89844,5.35547 -3.50782,7.42969 -0.87109,0.12891 -0.48437,-0.10547 -0.6289,-0.46875 -2.48047,-6.17578 -5.82032,-23.91016 -4.98828,-30.30469 0.47656,-3.65234 3.68359,-11.054676 5.80859,-14.128896 4.10937,-5.94141 12.20312,-8.30078 17.94922,-12.42578 3.24219,-2.32813 5.9414,-5.26172 9.09375,-7.69141 0.61328,-0.40625 1.66797,0.0937 2.09765,0.57031" fill-opacity="1" fill-rule="nonzero"/>
  <path fill="#2a311f" d="m 68.567489,53.166984 10.07031,-11.54688 c -8.71484,-9.75781 -5.89062,-22.0625 0.42969,-32.2148404 0.55469,-0.89063 3.28125,-4.89453 3.875,-5.30078 0.375,-0.26172 0.66016,-0.38282 1.125,-0.29688 0.75781,0.52344 -0.83203,10.2109404 -0.9414,11.8671904 -0.39844,5.98828 0.18359,11.91406 -1.42579,17.87891 -0.6914,2.55859 -2.48046,4.9414 -2.53515,7.58984 2.24609,-1.53125 4.01562,-3.59766 6.02344,-5.37109 0.69531,-0.61329 3.90625,-2.76954 4.10546,-3.16797 0.59766,-1.20313 -0.96093,-5.3711 -1.10546,-7.12891 -0.81641,-9.95312 5.08203,-19.0898404 12.992181,-24.65234042 0.58203,-0.41016 2.46875,-1.60547 2.17578,-0.0391 -0.66406,3.59766002 -2.97265,10.14063042 -4.250001,13.78907042 -0.60546,1.73828 -1.35937,3.82031 -2.10546,5.48437 -1.73829,3.8711 -4.3086,7.36328 -5.96485,11.27735 l 9.332031,-8.22266 c 3.06641,-5.54297 6.15235,-10.20313 11.44922,-13.8671904 6.45703,-4.46875 13.59375,-6.23437 21.29688,-7.33594 0.0898,0.52344 -0.25,0.85157 -0.5,1.23829 -4.33985,6.70703 -13.44532,14.6640604 -20.80078,17.8046804 -2.77735,1.1836 -8.13672,1.99219 -10.13282,3.15235 -1.0664,0.62109 -5.457031,4.69922 -6.546871,5.79297 -0.67969,0.68359 -1.07422,1.64843 -1.88672,2.23046 0.66797,0.22657 1.73437,-0.51953 2.32812,-0.83984 7.742191,-4.17578 13.050791,-5.03125 21.152351,-7.63672 4.4375,-1.42969 8.65234,-3.48437 13.07031,-4.96875 0.33594,0.51563 -0.47266,1.62891 -0.79687,2.05078 -3.72266,4.90625 -10.9961,11.05078 -16.94532,12.79688 -7.16406,2.10156 -12.699221,-0.043 -19.746091,-0.78516 -2.01953,2.17578 -4.75391,3.48438 -6.97656,5.39063 -4.57813,3.91797 -9.87891,10.0625 -13.73438,14.74218 -0.86719,1.05079 -3.96094,5.39454 -4.29297,6.46485 -0.14843,0.48828 -0.008,0.5 0.41797,0.42187 3.35156,-0.61718 6.5625,-1.92187 9.94922,-2.39843 7.25391,-1.02344 12.875,1.33593 19.84375,0.85937 6.292971,-0.42969 11.464841,-4.05859 17.398441,-4.43359 0.29687,-0.0195 1.07812,-0.14844 0.64062,0.32422 -11.00781,8.43359 -23.113281,16.3789 -37.574221,11.30859 -2.46875,-0.86328 -8.6875,-4.92578 -10.5039,-4.67188 -2.54297,0.35547 -6.52735,9.51172 -7.13672,12.02735 5.69531,-1.63281 11.89453,-3.33203 17.89062,-2.85547 3.0625,0.24219 6.50391,1.55859 9.57422,2.13281 3.6875,0.69141 7.42578,1.01563 11.14453,1.51172 l 0.3086,0.79297 c -2.67188,1.42969 -5.27344,3 -8.14844,4.03906 -6.82031,2.46094 -15.21875,3.39844 -21.80859,-0.17969 -2.58594,-1.40234 -7.10547,-6.90234 -9.65625,-3.1289 -0.75,1.10547 -3.77735,9.30859 -3.09766,10.03125 4.25781,-0.96485 8.00391,-2.29297 12.48828,-1.89453 4.82813,0.42968 10.66406,3.86718 14.69141,6.50781 0.6289,0.41406 4.23437,2.77344 4.38672,3.04687 0.1289,0.23438 0.15625,1.01954 0.0391,1.16797 -0.125,0.15625 -3.38672,0.6211 -3.92578,0.66016 -4.98047,0.35937 -13.66406,-0.52734 -18.15235,-2.72656 -3.46093,-1.69532 -5.97265,-4.98047 -9.65234,-5.83594 -0.55469,0.11719 -1.38672,6.48047 -1.45703,7.46094 -0.12891,1.84375 0.36719,5.41797 -0.0664,6.894526 -0.19531,0.65625 -1.30468,1.16406 -1.80859,0.82812 -1.24609,-0.83984 0.35156,-15.460926 0.9375,-17.785146 -5.07813,-3.97657 -10.75391,-8.01953 -13.57422,-14.03125 -4.03125,-8.58594 -1.51953,-17.53907 -0.63281,-26.48828 l 0.42969,-0.51172 c 1.44531,-0.0156 3.46093,10.45312 4.03125,12.09765 2.83984,8.23828 6.94531,11.1836 8.14453,21.28125 0.17968,1.5 -0.48047,6.41016 1.47265,6.75 l 5.82813,-14.66015 c -2.16406,-2.33203 -4.70313,-4.45703 -6.60938,-7.01953 -8.61718,-11.57422 -3.75,-24.71875 -2.89843,-37.75782 1.33593,0.42188 1.88671,2.00391 2.30078,3.23438 1.45703,4.33594 1.23437,9.70312 2.46484,14.30078 1.75781,6.55859 5.27344,11.59375 5.36719,19.02734 0.0273,2.07813 -0.67578,4.57032 -0.32813,6.78516 0.58203,0.66406 2.10157,-2.96484 2.27735,-3.25781 2.03906,-3.38672 4.49609,-6.48438 6.26562,-10.03125 -1.05469,0.1914 -1.41797,-0.29688 -2.0625,-0.94532 -10.14062,-10.21093 -7.94922,-26.8164 -2.42187,-38.82031 0.30859,-0.67187 1.78906,-4.1835904 2.42578,-2.01172 1.13281,3.86328 0.17969,9.56641 0.51562,13.73438 0.375,4.61328 2.29297,9.03125 2.80469,13.64844 0.53906,4.84765 -0.10156,9.6875 -1.26172,14.39453" fill-opacity="1" fill-rule="nonzero"/>
  <path fill="#5b654b" d="m 97.676869,152.52245 c -0.75782,-0.0977 -1.08594,0.77343 -1.38672,1.29687 -1.63281,2.85156 -3.61328,7.80078 -4.86328,10.96094 -0.9961,2.52344 -2.85157,6.96484 -3.1875,9.51172 -0.125,0.94922 0.77734,0.53906 0.58203,1.63672 0.47265,-0.15625 0.89453,-1.14454 1.09765,-1.58594 1.67579,-3.64453 3.74219,-9.58203 5.15235,-13.51563 0.98047,-2.73047 1.42578,-5.64453 2.60547,-8.30468 m -7.59766,-20.25391 c -0.61328,0.12891 -0.55469,0.63672 -0.62891,1.10547 -0.75,4.63672 -1.42968,5.68359 -2.85937,9.79687 -2.11328,6.07422 -3.56641,11.6836 -6.60547,17.4375 -0.12891,0.2461 -0.0703,0.95313 -0.65625,0.45313 -0.0508,-0.0469 -0.20312,-0.98047 -0.40234,-1.33594 -1.80469,-3.17969 -3.69922,-6.32031 -4.64063,-9.90625 2.6836,-4.07812 4.39063,-8.65625 5.35156,-13.4375 -2,1.67188 -2.42968,4.42578 -3.62109,6.65625 -0.83984,1.57031 -2.35937,2.98828 -2.70703,4.73438 l -0.64844,-0.19532 -3.14062,-6.61328 0.625,-0.14844 c 0.73437,-5.28906 3.30078,-10.17187 4.47656,-15.30859 0.31641,-1.38281 1.43359,-5.28906 -0.67578,-4.94531 0.0156,0.96484 0.0586,1.90625 -0.14063,2.86719 -0.80078,3.88281 -3.32422,8.41796 -4.14062,12.625 -0.25781,1.32031 -0.46485,2.48046 -0.30469,3.80859 -3.66797,-5.24609 -5.75391,-11.70313 -9.08203,-17.17969 -0.33203,-0.54687 -3.66016,-5.38281 -4.36328,-4.65234 l 9.80078,21.19922 -13.76953,-4.42188 c -0.8125,-0.2539 -0.50391,1.625 -0.32031,1.90235 5.23437,1.51562 10.17968,4.0039 15.60156,4.80859 l 3.55469,7.19922 c -0.84766,0.61719 -10.95704,-2.19531 -12.65625,-2.6875 -1.79297,-0.51563 -3.48829,-1.55078 -5.37891,-1.42188 l -0.0117,1.3711 c 6.36719,2.03515 12.69922,4.23437 19.30859,5.4375 l 4.75,9.96093 c -6.64843,-0.64843 -12.82421,-3.26562 -19.21093,-4.99218 l -0.89453,0.5625 c -0.39063,0.68359 0.0859,1.27734 0.73046,1.5 7.01954,1.55859 13.6211,4.9375 20.91016,5.19531 l 5.10547,9.60156 c -7.10938,0.21875 -14.28906,-1.79687 -21.04688,-3.88281 l -0.76953,1.80859 c 7.44922,2.32813 15.23438,4.37891 23.08203,3.95313 3.21485,4.92187 5.71875,9.63672 10.53516,13.21875 1.41016,1.05078 7.718751,4.48828 8.156251,5.13281 0.26172,0.38281 0.375,0.64453 0.29688,1.125 -1.07032,1.0625 -6.863291,-4.51953 -8.210941,-4.91797 -0.96485,-0.28515 -2.31641,-0.16406 -3.35156,-0.15625 -24.45313,0.12891 -38.6211,-19.88281 -40.95704,-42.54687 -1.16796,-11.30078 0.37891,-22.38672 -0.98828,-33.5 -0.13672,-1.09375 -1.40234,-4.86328 -0.60547,-5.4375 1.14063,-0.82422 10.02344,5.16797 11.70704,6.03906 3.61328,1.86719 7.53906,3.16797 11.19531,4.94141 13.14844,6.38281 24.73047,15.9414 27.953121,30.89843 2.71094,12.59766 1.05469,24.14453 -4.808591,35.4961 -2.30859,-1.9961 -3.95703,-4.17188 -5.67188,-6.66016 -2.0664,-3 -4.45312,-6.72656 -6.25,-9.89062 -0.5,-0.87891 -3.0664,-5.51172 -3,-6.07032 3.37891,-5.1289 5.03516,-11.16406 7.01954,-16.91406 0.58593,-1.69922 1.79687,-3.63672 2.22656,-5.36719 0.64062,-2.59375 0.5625,-5.61718 0.13281,-8.24609" fill-opacity="1" fill-rule="nonzero"/>
  <path fill="#634831" d="m 28.071399,126.25682 c 2.48437,-0.4375 1.24219,-5.31641 4.26562,-3.16016 4.96485,3.53516 6.71094,11.15235 6.16797,16.91797 -0.20703,2.21094 -1.77734,5.41797 -0.9414,7.52344 0.15234,0.38672 0.6914,0.44922 1.0625,0.49609 l 1.66406,-1.44921 c 4.41406,1.5625 6.12109,6.90625 7.61719,10.93359 l 5.47265,28.22266 c -0.55078,0.14062 -0.63281,-0.23047 -0.94922,-0.47266 -6.04687,-4.64844 -14.3164,-14.46484 -18.79297,-20.75781 -11.44531,-16.08594 -15.92968,-36.6875 -25.6562502,-54.08203 -0.1875,-0.33594 -2.41015,-4.17969 -2.6914,-3.78907 -0.17578,1.34766 0.35156,2.5625 0.79297,3.79297 2.03906,5.67188 5.6953102,11.80469 8.1171802,17.50781 4.97266,11.71094 8.42188,24.10938 15.50782,34.80469 4.92968,7.44141 14.78515,19.04688 22.11718,24.07422 2.21094,1.51563 12.09766,5.74609 12.78125,7.15234 0.19922,0.41016 0.19532,0.82422 0.16407,1.26172 -3.51953,-0.21875 -6.57813,-1.97265 -9.87891,-2.9375 -3.28906,-0.96093 -6.0625,-1.23828 -9.41016,-2.60937 -17.01953,-6.96875 -26.4414,-20.12891 -34.66406,-35.89453 C 7.8917088,148.1826 5.8409288,142.33495 4.3292088,136.19041 l 0.082,-0.37109 c 0.79297,-0.71875 2.45703,-1.37109 2.01563,-2.61719 -0.32422,-0.9375 -1.56641,-0.75781 -2.39453,-1.42187 -1.64454,-1.31641 -2.39844,-7.06641 -2.75782,-9.26172 -1.19531003,-7.22266 -1.55078003,-16.32422 -1.06250003,-23.644526 0.0586,-0.92578 0.11328,-3.9336 1.38282003,-3.57813 0.82421,0.22657 3.99609,4.63282 5.10937,5.656246 7.1523402,6.60547 21.2148402,7.07422 21.3750002,18.83594 0.0273,1.96875 -0.89062,4.36328 -0.008,6.46875" fill-opacity="1" fill-rule="nonzero"/>
  <path fill="#3a4027" d="m 114.12999,88.920884 c 0.94531,-0.98047 0.78516,-2.42578 1.51563,-3.70703 0.35937,-0.6289 0.95312,-1 1.28125,-1.5664 3.05859,-5.26954 6.27343,-10.40625 10.36328,-14.96485 0.3125,-1.03125 -1.59375,-5.33984 -1.76563,-7.13281 -0.26953,-2.80078 0.17969,-6.40234 2.3711,-8.38281 3.95312,-3.5625 10.28515,-2.69922 11.95703,2.59375 1.74219,5.50781 -1.8711,10.53515 -6.83985,12.65234 -3.61718,1.53906 -4.41015,1.63672 -7.16796,4.85156 -1.86329,2.17188 -4.32032,5.96094 -5.83985,8.39844 -2.70312,4.32813 -4.67969,8.96875 -6.82422,13.58203 0.5625,0.1211 0.76953,-0.30078 1.1211,-0.62109 3.33203,-3.0586 5.67187,-5.14063 9.83984,-7.23828 0.79688,-0.40235 3.82813,-1.32813 4.14453,-1.71094 0.64063,-0.78516 0.14844,-3.96094 1.21094,-5.91016 2.41016,-4.42578 8.51562,-6.29297 12.77344,-3.32031 7.09765,4.95703 1.09375,14.36719 -7.41797,13.42969 -2.08594,-0.23047 -4.4375,-2.14844 -6.24219,-1.83985 -3.84375,0.64844 -13.01172,7.32032 -15.58984,10.375 -3.01563,3.570316 -4.77344,11.980466 -5.45313,16.695316 -0.11328,0.76562 -0.10547,1.52343 -0.0781,2.29297 1.91797,-1.55469 2.98047,-3.79297 4.90625,-5.3711 1.11718,-0.91406 5.49609,-3.10156 5.87109,-3.62109 0.61719,-0.85156 0.15625,-3.11719 0.36719,-4.37891 1.13672,-6.746086 10.89453,-9.390616 15.27344,-4.035146 4.88281,5.968746 -1.33594,12.937496 -8.22657,12.339836 -2.91406,-0.25391 -5.02734,-2.53516 -7.60547,-1.26563 -5.30468,2.60547 -11.85546,9.44141 -11.85546,15.66407 v 5.69531 c 0,0.12891 -0.8125,0.55469 0.15234,0.47266 1.52734,-1.97657 6.94531,-3.31641 8.25,-4.72266 0.63281,-0.67969 0.58984,-2.20703 0.94141,-3.17578 1.54687,-4.26563 6.22656,-6.57031 10.60156,-5.55469 10.69531,2.48828 6.19531,16.99609 -6.10547,13.06641 -1.73438,-0.55469 -3.38281,-2 -5.10547,-1.80078 -1.51953,0.17578 -8.28125,3.98046 -8.67578,5.25781 0.0664,5.58984 0.39062,11.46484 1.25,16.98437 1.04297,6.69922 3.21094,13.27344 4.07031,19.97266 l -0.625,0.15234 c -1.20312,-1.65625 -1.76953,-3.42968 -2.3789,-5.37109 -2.53907,-8.0625 -4.15235,-18.59375 -4.60157,-27.03906 -0.51562,-9.67969 0.42969,-11.46485 -4.253901,-20.42969 -0.3711,-0.70703 -2.4375,-4.34766 -2.78516,-4.64453 -0.83984,-0.71094 -4.14844,0.30469 -5.72656,0.18359 -5.46485,-0.42578 -10.28516,-5.82422 -7.91406,-11.32031 3.39453,-7.863276 14.80859,-3.39063 15.01562,4.87109 0.0273,1.0625 -0.32422,1.88672 -0.35547,2.84375 -0.0859,2.55469 2.343751,4.625 3.554691,6.91407 1.0625,2.0039 1.46875,4.27343 2.78906,5.90625 0.24219,-4.04297 0.75781,-8.08985 1.35938,-12.09375 0.22265,-1.51172 1.16015,-3.67188 0.78515,-5.07422 -0.14062,-0.52344 -0.85547,-1.28516 -1.12109,-2.04688 -0.70313,-2.04297 -1.68359,-7.332026 -3.05469,-8.648436 -1.0039,-0.96093 -4.714841,-1.48046 -6.417971,-2.44531 -5.93359,-3.35937 -5.51953,-13.62109 1.96485,-14.30469 5.476561,-0.5039 8.468751,4.32813 8.082031,9.34766 -0.14063,1.79688 -1.64063,4.75391 -1.52735,5.92188 0.0781,0.8125 2.19141,7.117176 2.625,8.144526 0.11329,0.26953 0.54688,1.13281 0.78516,0.94922 0.79688,-3.88282 3.52344,-8.441406 4.03516,-12.261716 0.5625,-4.20703 0.42187,-8.84375 -0.082,-13.04297 -4,-3.42578 -8.75,-9.33985 -4.7461,-14.57031 4.94141,-6.45704 13.74219,-1.625 12.42969,6.73437 -0.53906,3.42188 -3.00391,5.71094 -5.30469,7.98438 z m 0,0" fill-opacity="1" fill-rule="nonzero"/>
  <path fill="#856c53" d="m 158.31749,124.88182 c -1.51953,1.54688 -5.21094,3.58594 -7.35156,3.87891 -1.77734,0.24218 -3.44531,-0.57422 -4.83203,0.86328 -2.24219,2.32812 -5.35156,9.08984 -7.10938,12.20312 -0.26953,0.47266 -0.72265,0.57032 -0.9375,0.96485 -2.01172,3.6289 -1.95703,8.3125 -2.11328,12.42968 -0.0273,0.7461 -0.7539,2.37891 -0.0156,2.67188 0.0976,-1.39063 3.22265,-3.19531 3.4375,-4.02344 0.1289,-0.48828 -0.33203,-3 -0.28125,-4.05469 0.26172,-5.38281 4.67187,-11.60937 10.29687,-12.16406 15.75,-1.55859 11.17188,21.10938 -3.79297,19.60938 -1.6289,-0.16407 -3.85547,-1.75391 -4.67968,-1.53125 -0.25,0.0664 -3.15625,3.28515 -3.52344,3.77734 -2.71094,3.60156 -4.875,10.02734 -6.92188,14.27734 -1.42968,2.96485 -5.07031,8.40235 -5.60937,11.48047 -0.0312,0.1836 -0.082,0.51953 0.16015,0.47657 2.30469,-2.50782 5.09766,-4.60938 8.33985,-5.74219 -1.06641,-6.45313 3.33984,-13.58985 10.09375,-14.42578 10.36719,-1.28516 13.67969,11.04297 5.6875,16.44531 -4.19922,2.83984 -8.2461,2.86328 -12.88672,1.03125 -0.91016,-0.35938 -1.46094,-1.33594 -2.60547,-1.04688 -0.81641,0.20704 -6.07031,3.91016 -7.04687,4.6875 -1.98047,1.57032 -6.42969,6.72266 -8.15235,7.34766 -0.5039,0.18359 -0.94922,0.32422 -1.49609,0.24609 -0.45313,-0.39843 2.67969,-3.39843 2.98437,-3.8164 3.58203,-4.94141 5.1211,-11.03516 4.14844,-17.07813 -5.69922,-1.70703 -10.55078,-8.46093 -10.62109,-14.39843 -0.043,-3.73438 3.84765,-8.65235 7.7539,-8.69141 8.28907,-0.0781 10.58203,11.21875 8.08203,17.57422 -0.46875,1.1914 -2.34765,3.55859 -2.47265,4.48828 -0.0703,0.51953 0.28515,2.6875 0.8789,2.93359 l 6.25782,-15.10156 c 0.82812,-2.41797 -0.98047,-5.76953 -0.83594,-7.85156 0.0391,-0.58594 2.10547,-6.80078 2.48828,-7.89844 2.125,-6.12891 6.25781,-11.21094 8.79297,-17.13672 0.0586,-0.71484 -1.75,-2.83594 -2.19531,-3.6914 -2.09375,-4.00391 -2.98438,-11.04688 0.51172,-14.45704 8.9375,-8.71875 26.2539,4.82422 15.5664,15.72266" fill-opacity="1" fill-rule="nonzero"/>
  <path fill="#616645" d="m 178.66515,76.889634 c 1,-1.98828 -1.31641,-3.08203 -2.15235,-4.6289 -1.65234,-3.0625 -1.26562,-5.4961 -0.89062,-8.70703 0.0312,-0.27735 0.33594,-1.24219 -0.26563,-1.20313 -0.35937,0.0195 -1.83593,3.4375 -1.98046,4.02344 -1,4.08203 0.6875,9.74609 5.28906,10.51562 m -4.92969,3.35938 c -6.32812,-5.19531 -6.29297,-14.34766 -3.02344,-21.28125 2.42188,-5.13281 10.96485,-14.01172 15.39063,-17.83203 5.48047,-4.73047 6.91406,-1.57422 10.36719,3.25781 7.10546,9.95703 14.64843,27.30078 2.5625,36.5625 -7.125,5.46094 -18.42969,4.93359 -25.29688,-0.70703" fill-opacity="1" fill-rule="nonzero"/>
  <path fill="#6b4d33" d="m 158.3253,14.346664 c 1.25,1.5 1.26172,3.57422 0.10547,5.125 -0.73828,0.98829 -2.16015,1.32422 -2.55859,1.8711 -0.57813,0.78906 -0.0898,5.9414 0.0273,7.30078 0.50391,5.95312 1.72657,11.88281 1.89844,17.87891 1.84766,-1.9961 1.88672,-5.40235 2.61719,-7.97657 1.37109,-4.8125 3.23437,-9.65625 3.96875,-14.57422 -4.59766,-3.90234 0.60156,-10.71484 5.41015,-7.32812 4.00391,2.82031 1.42188,8.64844 -3.11718,8.38672 l -6.34766,22.75781 c 1.05859,-1.4375 2.35938,-3.34766 3.12109,-4.94141 1.63282,-3.41406 3.01563,-8.86718 4.83204,-11.9414 0.3789,-0.64063 1.22656,-1.35938 1.84765,-1.78516 -0.0234,0.78125 0.0703,1.58203 0,2.36719 -0.27344,3.03125 -3.9414,11.19922 -5.51953,14.09766 -1.27344,2.34765 -3.33984,4.1875 -4.28125,6.63281 0.5,0.49609 3.86719,-2.95703 4.29688,-3.48047 0.33984,-0.41406 0.23437,-0.84375 0.44921,-1.10156 1.96875,-2.35938 3.92188,-4.69141 6.16797,-6.8086 l 0.3125,0.63282 c 0.51563,-0.98829 1.3125,-2.8711 2.3711,-1.58204 0.3789,-0.39843 0.36328,-1.70703 0.48047,-1.88281 0.23828,-0.34765 0.84765,-0.45312 1.10937,-0.80469 0.51563,-0.69921 2.92188,-3.80078 3.01953,-4.24609 0.13281,-0.60937 -0.74219,-1.3125 -0.96484,-1.92969 -2.69141,-7.46484 9.36719,-9.01953 8.69922,-1.42187 -0.11719,1.36719 -1.08203,2.7539 -2.23047,3.46875 -1.15625,0.72265 -2.2461,0.21094 -2.98438,0.80859 -1.02734,0.82813 -2.91797,4.4961 -3.96875,5.84375 -5.10547,6.56641 -11.375,12.46875 -18.82422,16.29297 -0.91015,4.84766 -0.26562,9.82813 -0.45703,14.73438 -0.1914,4.95703 -1.41797,17.23046 -5.41015,20.53125 -0.69922,0.57812 -1.80078,0.82031 -1.89453,-0.29688 0.70703,-2.48047 2.01953,-4.88672 2.76953,-7.36719 1.92187,-6.3125 1.85937,-13.86328 2.0039,-20.46093 0.0312,-1.42188 0.2461,-5.53516 -0.0742,-6.59766 -0.28906,-0.96875 -4.73437,-2.57813 -5.92187,-3.25 -5.34375,-3.02344 -10.67578,-7.88281 -14.74609,-12.46875 -0.75391,-0.85156 -3.59375,-5.00781 -3.94922,-5.22266 -0.95703,-0.57812 -2.70313,0.37891 -4.2461,-1.13281 -4.44531,-4.36328 1.67188,-11.25781 6.75391,-6.75391 3.08984,2.73829 -0.46094,5.52735 -0.24609,6.86329 0.17968,1.09375 4.16406,5.53515 5.16796,6.5664 2.125,2.1875 5.54297,5.40235 7.92579,7.26172 2.07031,1.61328 4.25781,2.99609 6.79296,3.80078 l -6.48828,-6.0039 -7.28125,-9.51954 0.16797,-1.55859 c 4.78125,3.38672 7.98828,8.62891 11.86328,12.97266 -0.0703,-2.52344 -2.33203,-4.7461 -3.48828,-6.95313 -2.67187,-5.11328 -5.16797,-10.95703 -5.55859,-16.75 -4.8125,-0.22265 -6.62891,-4.89453 -2.66016,-7.9375 2.01953,-1.54687 3.96094,-2.0625 6.08203,-0.42578 1.95313,1.50781 2.05469,4.59375 0.53516,6.41406 -1.77344,2.125 -2.28516,0.41016 -1.55859,4.14063 0.75,3.86328 2.57421,7.54687 3.99609,11.1914 l 5.01953,8.73829 c -0.30859,-4.10547 -5.30078,-10.48829 -3.82812,-14.4336 0.16406,-0.4375 -0.10157,-0.53515 0.66406,-0.4375 0.69531,2.16016 1.96094,4.13672 2.77734,6.2461 0.92188,2.37109 1.51953,4.84765 2.19922,7.29687 0.0703,0.24609 0.0234,1.05078 0.41016,0.53516 -0.28516,-5.11328 -1.70313,-10.11719 -2.21485,-15.19141 -0.14453,-1.44141 -0.125,-8.42578 -0.48047,-9.01172 -0.22656,-0.375 -1.66406,-1.10156 -2.19921,-1.91406 -2.94922,-4.51563 4.1289,-9.47656 7.63671,-5.26563" fill-opacity="1" fill-rule="nonzero"/>
  <path fill="#5d6244" d="m 167.59874,174.98338 c -0.10547,-1.46875 0.14453,-3.97656 -0.9414,-5.0625 0.0117,1.38672 0.21093,2.82422 0.40625,4.1836 0.0391,0.30078 0.10546,0.95703 0.53515,0.8789 m -2.84375,-12.97265 -2.52734,-7.91016 c -0.10547,2.4375 0.79687,5.03516 1.8125,7.21875 0.20703,0.44531 -0.19141,0.86328 0.71484,0.69141 m 15.19141,-9.17578 -6.95703,-24.84375 -2.85157,-4.58204 c 3.54297,10.21875 6.54297,20.57813 9.11329,31.09375 l -5.63282,9.72266 c -0.5625,-3.50391 -1.4375,-6.97266 -2.45312,-10.36719 -1.16797,-3.92187 -2.77735,-9.05468 -4.26953,-12.8164 -0.33594,-0.85157 -0.79688,-2.1836 -1.50391,-2.76172 0.41797,6.04687 3.19531,11.88281 4.89844,17.71875 0.96484,3.29297 1.6875,6.66015 2.68359,9.94531 -1.03125,2.32422 -2.15625,4.83984 -3.41797,7.03516 -0.87109,1.51953 -1.96093,2.69922 -2.83984,4.125 -2.20313,3.58203 -3.67578,7.68359 -7.65234,9.90234 l 0.30859,-5.53516 -1.57422,-14.24218 c -1.13672,-9.47266 6.76953,-14.61719 7.28516,-23.71485 0.3125,-5.49218 -1.35157,-10.21484 0.6914,-15.76172 1.59766,-4.33593 5.52344,-9.08984 9.52735,-11.35937 0.82812,-0.46875 3.36718,-2.12109 3.76172,-0.80859 2.57812,9.07421 3.61718,18.58203 6.51171,27.54296 -1.51562,3.41016 -3.33984,6.75782 -5.6289,9.70704" fill-opacity="1" fill-rule="nonzero"/>
  <path fill="#806549" d="m 26.223739,59.229484 c -0.28906,0.1875 -1.64062,5.44922 -1.80469,6.26562 -0.64843,3.23047 -1.1875,6.91797 -0.77734,10.13672 2.54688,-2.75781 3.09766,-8.01172 6,-10.28906 1.76563,-1.38672 3.10156,-1.6875 3.46094,0.98437 0.59375,4.46094 -3.06641,3.9375 -5.51953,6.44922 -0.60157,0.61328 -4.4375,5.73828 -4.49219,6.21485 0.42578,10.37109 4.39453,19.55859 9.09375,28.593746 l 0.65625,-3 c -0.0195,-2.35547 -0.99609,-4.984376 -0.67578,-7.296876 0.14062,-1.04297 0.82031,-1.15234 0.96094,-1.88672 0.17968,-0.92969 -0.125,-2.15625 0.0273,-3.14062 -1.41016,-0.15235 -0.98828,-1.17969 -1.54688,-2.29297 -0.43359,-0.8711 -1.39453,-2.01563 -1.5664,-2.85938 -1.46875,-7.13672 5.09765,-13.35937 11.46875,-8.30468 3.67969,2.92187 3.625,8.66406 0.36719,11.90234 -1.74219,1.73047 -4.82032,2.01172 -7.16407,2.01172 -0.0703,4.375 0.0899,8.765616 0.0117,13.144526 -0.0195,1.24609 -0.44531,2.35156 -0.33984,3.79687 0.17578,2.33204 2.17578,4.71485 3.55078,6.57422 2.30469,3.11328 5.07422,5.91797 7.6875,8.76563 0.63672,1.91015 -0.80469,1.73828 -2.05859,0.78906 -4.25391,-3.23047 -8.32813,-9.30078 -11.19922,-13.79687 -1.19922,-1.87891 -3.29688,-6.5586 -4.59766,-7.73829 -0.82031,-0.74609 -2.17187,-1.16406 -3.15234,-1.91406 -2.59766,-1.98828 -6.35547,-5.210936 -8.5586,-7.574216 -0.5039,-0.54297 -0.95312,-1.33984 -1.34375,-1.97656 -2.82812,-0.23047 -4.36718,0.57813 -7.0546802,-0.69922 -4.23829,-2.01172 -5.60938,-7.97656 -2.95313,-11.8164 3.27344,-4.73047 8.4765602,-3.41407 11.2812502,0.95703 2.44531,3.80859 1.27344,7.48047 2.60547,11.6289 l -0.64844,0.33203 c 2.32031,2.98047 4.57031,6.33204 8.22656,7.753906 -1.67187,-4.624996 -3.02343,-9.343746 -4.02734,-14.167966 -0.47656,-2.29687 -0.55469,-5.98437 -1.17578,-8 -0.23438,-0.75781 -1.79688,-2.02734 -2.39844,-2.98047 -0.6914,-1.09765 -0.91406,-2.21484 -1.51562,-3.23047 -1.57422,-2.65625 -4.58203,-5.69921 -4.51172,-8.79687 0.0664,-3.02734 2.60547,-4.10938 4.45703,-1.58594 0.64844,0.88281 1.11719,2.55469 1.42578,3.63672 0.85938,3.02344 1.26563,6.21094 2.37109,9.17969 l 0.47657,-0.3125 c 0.23047,-5.33594 1.60547,-10.47266 2.68359,-15.66406 -0.0781,-0.76563 -1.53125,-1.69141 -2.03516,-2.39454 -3.77343,-5.25 0.35938,-14.83203 6.15625,-16.89843 7.94141,-2.83594 7.95704,9.53125 6.01172,14.23437 -1.33984,3.2461 -4.4414,4.98047 -7.86328,5.26563" fill-opacity="1" fill-rule="nonzero"/>
  <path fill="#947c5f" d="m 169.72374,104.65135 c -0.19922,0.2461 -2.09375,1.61328 -2.46875,1.80078 -2.44531,1.20703 -5.375,0.74219 -7.2539,-1.23047 -4.12891,-4.33984 -0.58204,-13.027336 1.58984,-17.722646 1.41406,-3.0586 3.84766,-7.4961 7.75391,-4.59375 2.3164,1.72265 1.52343,3.57812 1.40625,5.83984 -0.0859,1.69922 -0.23829,3.26563 -0.3125,5.0625 -0.11329,2.86328 1.04687,8.628906 -0.71485,10.843746" fill-opacity="1" fill-rule="nonzero"/>
  <path fill="#2e3422" d="m 124.8878,38.295884 c 0.89063,0.85938 -3.82031,3.84375 -4.45703,4.2461 -10.96484,6.8789 -23.109371,5.95312 -33.828121,-0.92578 2.6289,-1.10157 5.14062,-2.5 7.96094,-3.11329 6.335931,-1.375 12.984371,0.34375 19.394531,0.4375 3.66406,0.0547 7.28515,-0.37109 10.92968,-0.64453" fill-opacity="1" fill-rule="nonzero"/>
  <path fill="#2e3422" d="m 106.45812,51.659164 c 0.5,0.59375 0.58984,2.42188 -0.16407,2.76563 -0.78906,0.35937 -3.77343,1.04297 -4.73437,1.19922 -4.976561,0.8164 -10.554691,0.69922 -15.167971,-1.45313 l -9.59766,-5.42968 c 2.47657,-0.082 4.72266,-1.23047 7.15625,-1.54688 7.51563,-0.97266 15.375,2.48047 22.507821,4.46484" fill-opacity="1" fill-rule="nonzero"/>
  <path fill="#74755a" d="m 74.786239,104.65916 c -0.0391,0.0937 -0.44531,0.0586 -0.5,0.28516 -0.10547,0.41016 0.14844,1.64453 -0.34375,2.33203 l -0.94531,-0.3164 c 0.50391,1.52734 -3.21875,2.74609 -4.31641,2.82031 -3.03125,0.21094 -7.41015,-2.76563 -7.94531,-5.90625 -1.14844,-6.691406 7.5625,-9.355466 11.89453,-4.933596 1.08985,1.113286 2.84766,4.160156 2.15625,5.718746" fill-opacity="1" fill-rule="nonzero"/>
  <path fill="#595c47" d="m 105.81749,178.85448 c 7.95703,-1.65235 9.13672,11.64453 -0.23828,9.26953 -4.69922,-1.19141 -4.375,-8.3125 0.23828,-9.26953" fill-opacity="1" fill-rule="nonzero"/>
  <path fill="#707558" d="m 176.25499,97.979484 c -5.77344,-4.04688 2.30078,-12.27735 6.35547,-6.82422 3.26953,4.39453 -1.74219,10.058586 -6.35547,6.82422" fill-opacity="1" fill-rule="nonzero"/>
  <path fill="#746e54" d="m 78.243269,194.46776 c -0.17968,0.29297 -0.86328,0.80859 -1.02343,1.41406 -2.70704,0.52734 -9.61329,-1.91016 -8.51563,-5.41016 1.19922,-3.82031 9.75391,-0.61718 10.23047,2.76172 0.0117,0.53907 -0.45703,0.84375 -0.69141,1.23438" fill-opacity="1" fill-rule="nonzero"/>
  <path fill="#644f30" d="m 37.786239,28.870104 c 5.70313,-1.32031 6.96094,9.90625 0.0234,7.75391 -4.17578,-1.29688 -2.65234,-7.14453 -0.0234,-7.75391" fill-opacity="1" fill-rule="nonzero"/>
  <path fill="#705b41" d="m 41.141709,112.23729 c -1.41406,-1.69141 -1.39453,-7.49609 0.95313,-7.41406 4.46093,0.15625 6.25,10.36328 0.82421,8.63672 -0.22265,-0.0703 -1.63281,-1.04688 -1.77734,-1.22266" fill-opacity="1" fill-rule="nonzero"/>
  <path fill="#604b2f" d="m 61.360459,182.50682 c 0.41016,0.28906 1.9375,0.20313 2.77344,0.86328 2.34765,1.84766 -0.72656,5.66016 -3.16406,2.85156 -0.54297,-0.62109 -0.71875,-1.74609 -1.26954,-2.21093 -0.62109,-0.53125 -1.94531,-0.69532 -2.72656,-1.54688 -2.07422,-2.26562 1.26172,-4.73047 3.19531,-2.40625 0.42969,0.51563 0.96875,2.29297 1.19141,2.44922" fill-opacity="1" fill-rule="nonzero"/>
  <path fill="#554532" d="m 210.23546,65.245104 c 2.90625,-0.59375 5.15625,3.91016 2.14063,5.95703 -3.66016,2.48438 -5.32032,-5.30468 -2.14063,-5.95703" fill-opacity="1" fill-rule="nonzero"/>
  <path fill="#846b4d" d="m 139.67296,6.4013536 c 2.90234,-0.87109 4.72266,2.81641 2.9375,3.9062504 -0.96875,0.58985 -5.83984,-0.7265604 -4.59766,-2.7031204 0.0547,-0.0859 1.51954,-1.16407 1.66016,-1.20313" fill-opacity="1" fill-rule="nonzero"/>
  <path fill="#000000" d="m 157.16124,189.85448 c 0.5586,0.58593 -2.32812,2.98437 -3.16406,2.84765 -0.5,-0.48828 2.89453,-3.125 3.16406,-2.84765" fill-opacity="1" fill-rule="nonzero"/>
  <path fill="#cdc3ac" d="m 186.58702,176.24901 c 0.11719,0.71484 -0.29297,0.74609 -0.8125,0.92578 -1.625,0.57031 -3.57422,0.85156 -5.1914,1.45312 -4.76172,1.77735 -9.17188,4.45313 -13.42969,7.12891 l -0.82422,-0.80859 c 0.0195,-0.58594 3.38672,-2.6836 4.14844,-3.13672 4.89062,-2.90235 10.51953,-4.60938 16.10937,-5.5625" fill-opacity="1" fill-rule="nonzero"/>
  <path fill="#cdc3ac" d="m 212.21593,144.29198 -0.0234,1.24218 -5.03515,1.60547 c -0.17969,-0.89453 0.25781,-0.50781 0.67578,-0.73437 0.53125,-0.28125 4.19531,-2.32422 4.38281,-2.11328" fill-opacity="1" fill-rule="nonzero"/>
  <path fill="#606060" d="m 217.27843,111.69823 c 1.48828,-1.35938 2.84375,-3.01172 4.74219,-3.79297 0.57812,0.58594 -3.97657,3.83984 -4.74219,3.79297" fill-opacity="1" fill-rule="nonzero"/>
  <path fill="#cdc3ac" d="m 97.676869,152.52245 c -1.17969,2.66015 -1.625,5.57421 -2.60547,8.30468 -1.41016,3.9336 -3.47656,9.8711 -5.15235,13.51563 -0.20312,0.4414 -0.625,1.42969 -1.09765,1.58594 0.19531,-1.09766 -0.70703,-0.6875 -0.58203,-1.63672 0.33593,-2.54688 2.1914,-6.98828 3.1875,-9.51172 1.25,-3.16016 3.23047,-8.10938 4.86328,-10.96094 0.30078,-0.52344 0.6289,-1.39453 1.38672,-1.29687" fill-opacity="1" fill-rule="nonzero"/>
  <path fill="#ffffff" d="m 178.66515,76.889634 c -4.60156,-0.76953 -6.28906,-6.43359 -5.28906,-10.51562 0.14453,-0.58594 1.62109,-4.00391 1.98046,-4.02344 0.60157,-0.0391 0.29688,0.92578 0.26563,1.20313 -0.375,3.21093 -0.76172,5.64453 0.89062,8.70703 0.83594,1.54687 3.15235,2.64062 2.15235,4.6289" fill-opacity="1" fill-rule="nonzero"/>
  <path fill="#ffffff" d="m 164.75499,162.01073 c -0.90625,0.17187 -0.50781,-0.2461 -0.71484,-0.69141 -1.01563,-2.18359 -1.91797,-4.78125 -1.8125,-7.21875 z m 0,0" fill-opacity="1" fill-rule="nonzero"/>
  <path fill="#ffffff" d="m 167.59874,174.98338 c -0.42969,0.0781 -0.49609,-0.57812 -0.53515,-0.8789 -0.19532,-1.35938 -0.39454,-2.79688 -0.40625,-4.1836 1.08593,1.08594 0.83593,3.59375 0.9414,5.0625" fill-opacity="1" fill-rule="nonzero"/>
  <path fill="#cdc3ac" d="m 174.1339,171.83104 c 9.20312,-5.46484 19.80078,-8.67969 30.32031,-10.47266" fill-opacity="1" fill-rule="nonzero"/>
  <path fill="#cdc3ac" d="m 182.18859,160.64354 c 9.20312,-5.46094 19.80078,-8.67578 30.3164,-10.46875" fill-opacity="1" fill-rule="nonzero"/>
  <path fill="#cdc3ac" d="m 189.29405,143.0537 c 9.20313,-5.46094 19.80079,-8.67579 30.31641,-10.46875" fill-opacity="1" fill-rule="nonzero"/>
  <path fill="#cdc3ac" d="m 195.86046,131.98338 c 9.92578,-4.00781 18.90625,-10.48828 26.70313,-17.76953" fill-opacity="1" fill-rule="nonzero"/>
</svg>
